<svg width="42" height="43" viewBox="0 0 42 43" fill="none" xmlns="http://www.w3.org/2000/svg">
<g clip-path="url(#clip0_173_13924)">
<path d="M11.416 24.111C13.5307 24.111 15.2439 25.9012 15.2439 28.111L15.2558 28.2923C15.3409 28.943 15.8734 29.4443 16.5199 29.4443H25.8769C26.5812 29.4443 27.1529 28.847 27.1529 28.111C27.1529 25.9012 28.8678 24.111 30.9807 24.111H35.6593C37.3044 24.111 38.6365 25.5048 38.6365 27.2221V36.111C38.6365 37.8283 37.3044 39.2221 35.6593 39.2221H6.3122C4.66876 39.2221 3.33496 37.8283 3.33496 36.111V27.2221C3.33496 25.5048 4.66876 24.111 6.3122 24.111H11.416ZM11.416 26.7777H6.3122C6.07742 26.7777 5.88688 26.9768 5.88688 27.2221V36.111C5.88688 36.3563 6.07742 36.5554 6.3122 36.5554H35.6593C35.894 36.5554 36.0846 36.3563 36.0846 36.111V27.2221C36.0846 26.9768 35.894 26.7777 35.6593 26.7777H30.9807C30.2764 26.7777 29.7048 27.375 29.7048 28.111L29.6963 28.3848C29.5602 30.4648 27.9031 32.111 25.8769 32.111H16.5199C14.4069 32.111 12.692 30.3208 12.692 28.111C12.692 27.375 12.1204 26.7777 11.416 26.7777ZM13.1173 18.3332H28.8541C29.5585 18.3332 30.1301 18.9306 30.1301 19.6666C30.1301 20.4026 29.5585 20.9999 28.8541 20.9999H13.1173C12.413 20.9999 11.8414 20.4026 11.8414 19.6666C11.8414 18.9306 12.413 18.3332 13.1173 18.3332ZM14.3933 12.111H27.5782C28.2825 12.111 28.8541 12.7083 28.8541 13.4443C28.8541 14.1803 28.2825 14.7777 27.5782 14.7777H14.3933C13.6889 14.7777 13.1173 14.1803 13.1173 13.4443C13.1173 12.7083 13.6889 12.111 14.3933 12.111ZM30.028 5.44434C32.0713 5.44434 33.8661 6.82922 34.482 8.83989L34.567 9.14745L38.5991 26.0097C38.7709 26.7243 38.3558 27.4497 37.6719 27.6274C37.0458 27.791 36.4112 27.439 36.1782 26.8292L36.1254 26.6568L32.0866 9.79456C31.8688 8.88078 31.1271 8.21945 30.2475 8.12345L30.0246 8.111H11.5811C10.6624 8.111 9.85937 8.72256 9.56845 9.61322L9.5072 9.84078L5.85626 26.6283C5.69974 27.3466 5.01582 27.7963 4.32851 27.6328C3.69903 27.4834 3.28392 26.8719 3.34006 26.2177L3.36729 26.0381L7.01823 9.24878C7.48098 7.12434 9.22649 5.58656 11.285 5.45322L11.5811 5.44434H30.028Z" fill="#5C667B"/>
</g>
<defs>
<clipPath id="clip0_173_13924">
<rect width="40.8307" height="42.6667" fill="white" transform="translate(0.783203 0.111328)"/>
</clipPath>
</defs>
</svg>
