<svg width="20" height="21" viewBox="0 0 20 21" fill="none" xmlns="http://www.w3.org/2000/svg">
<path d="M15.2968 4.61764C14.5301 4.22597 13.7176 4.14847 12.8593 4.37931C12.1335 4.59347 11.5326 5.02597 11.0576 5.66764L10.3735 6.62597L8.65512 9.80097L10.2685 16.1676L11.0151 15.5943C11.9576 14.8693 13.8085 13.1568 14.2551 12.6885C14.8718 12.0435 15.7943 11.081 16.2093 10.5085C16.4901 10.1193 16.7093 9.72514 16.866 9.32264C17.2001 8.13431 17.2168 7.13931 16.8785 6.34264C16.5468 5.56431 16.0201 4.98764 15.2968 4.61764Z" fill="#FF8148" stroke="#FF8148" stroke-width="0.833333"/>
<path d="M4.74338 4.61626C5.51005 4.22626 6.32255 4.14876 7.18088 4.37876C7.90672 4.5921 8.50755 5.02543 8.98255 5.6671L9.66672 6.62543L11.385 9.80043L9.77172 16.1654L9.02505 15.5921C8.08255 14.8671 6.23255 13.1554 5.78505 12.6871C5.16838 12.0421 4.24588 11.0796 3.83172 10.5071C3.55005 10.1179 3.33088 9.72376 3.17422 9.32126C2.84005 8.13376 2.82338 7.13876 3.16255 6.3421C3.49338 5.56376 4.02005 4.98626 4.74338 4.61626Z" fill="#FF8148" stroke="#FF8148" stroke-width="0.833333"/>
</svg>
